HIERARCHY
ROOT hip
{
  OFFSET 0 0 0
  CHANNELS 6 Xposition Yposition Zposition Zrotation Yrotation Xrotation
  JOINT abdomen
  {
    OFFSET 0 20.6881 -0.73152
    CHANNELS 3 Zrotation Xrotation Yrotation
    JOINT chest
    {
      OFFSET 0 11.7043 -0.48768
      CHANNELS 3 Zrotation Xrotation Yrotation
      JOINT neck
      {
        OFFSET 0 22.1894 -2.19456
        CHANNELS 3 Zrotation Xrotation Yrotation
        JOINT head
        {
          OFFSET -0.24384 7.07133 1.2192
          CHANNELS 3 Zrotation Xrotation Yrotation
          JOINT leftEye
          {
            OFFSET 4.14528 8.04674 8.04672
            CHANNELS 3 Zrotation Xrotation Yrotation
            End Site
            {
              OFFSET 1 0 0
            }
          }
          JOINT rightEye
          {
            OFFSET -3.6576 8.04674 8.04672
            CHANNELS 3 Zrotation Xrotation Yrotation
            End Site
            {
              OFFSET 1 0 0
            }
          }
        }
      }
      JOINT rCollar
      {
        OFFSET -2.68224 19.2634 -4.8768
        CHANNELS 3 Zrotation Xrotation Yrotation
        JOINT rShldr
        {
          OFFSET -8.77824 -1.95073 1.46304
          CHANNELS 3 Zrotation Xrotation Yrotation
          JOINT rForeArm
          {
            OFFSET -28.1742 -1.7115 0.48768
            CHANNELS 3 Zrotation Xrotation Yrotation
            JOINT rHand
            {
              OFFSET -22.5879 0.773209 7.07136
              CHANNELS 3 Zrotation Xrotation Yrotation
              JOINT rThumb1
              {
                OFFSET -1.2192 -0.487915 3.41376
                CHANNELS 3 Zrotation Xrotation Yrotation
                JOINT rThumb2
                {
                  OFFSET -3.37035 -0.52449 3.41376
                  CHANNELS 3 Zrotation Xrotation Yrotation
                  End Site
                  {
                    OFFSET -1.78271 -1.18214 1.43049
                  }
                }
              }
              JOINT rIndex1
              {
                OFFSET -7.75947 0.938293 5.60832
                CHANNELS 3 Zrotation Xrotation Yrotation
                JOINT rIndex2
                {
                  OFFSET -2.54057 -0.884171 1.56538
                  CHANNELS 3 Zrotation Xrotation Yrotation
                  End Site
                  {
                    OFFSET -1.62519 -0.234802 1.16502
                  }
                }
              }
              JOINT rMid1
              {
                OFFSET -8.24714 1.18213 3.41376
                CHANNELS 3 Zrotation Xrotation Yrotation
                JOINT rMid2
                {
                  OFFSET -3.10165 -0.590103 1.0647
                  CHANNELS 3 Zrotation Xrotation Yrotation
                  End Site
                  {
                    OFFSET -2.48547 -0.328903 0.83742
                  }
                }
              }
              JOINT rRing1
              {
                OFFSET -8.82822 0.546677 1.51678
                CHANNELS 3 Zrotation Xrotation Yrotation
                JOINT rRing2
                {
                  OFFSET -2.60934 -0.819778 -0.0198488
                  CHANNELS 3 Zrotation Xrotation Yrotation
                  End Site
                  {
                    OFFSET -2.33842 -0.294052 0.168128
                  }
                }
              }
              JOINT rPinky1
              {
                OFFSET -8.27202 -0.0477905 -0.4584
                CHANNELS 3 Zrotation Xrotation Yrotation
                JOINT rPinky2
                {
                  OFFSET -1.82734 -0.647385 -0.700984
                  CHANNELS 3 Zrotation Xrotation Yrotation
                  End Site
                  {
                    OFFSET -1.69225 -0.51767 -0.607171
                  }
                }
              }
            }
          }
        }
      }
      JOINT lCollar
      {
        OFFSET 2.68224 19.2634 -4.8768
        CHANNELS 3 Zrotation Xrotation Yrotation
        JOINT lShldr
        {
          OFFSET 8.77824 -1.95073 1.46304
          CHANNELS 3 Zrotation Xrotation Yrotation
          JOINT lForeArm
          {
            OFFSET 28.1742 -1.7115 0.48768
            CHANNELS 3 Zrotation Xrotation Yrotation
            JOINT lHand
            {
              OFFSET 22.5879 0.773209 7.07136
              CHANNELS 3 Zrotation Xrotation Yrotation
              JOINT lThumb1
              {
                OFFSET 1.2192 -0.487915 3.41376
                CHANNELS 3 Zrotation Xrotation Yrotation
                JOINT lThumb2
                {
                  OFFSET 3.37035 -0.52449 3.41376
                  CHANNELS 3 Zrotation Xrotation Yrotation
                  End Site
                  {
                    OFFSET 1.78271 -1.18214 1.43049
                  }
                }
              }
              JOINT lIndex1
              {
                OFFSET 7.75947 0.938293 5.60832
                CHANNELS 3 Zrotation Xrotation Yrotation
                JOINT lIndex2
                {
                  OFFSET 2.54057 -0.884171 1.56538
                  CHANNELS 3 Zrotation Xrotation Yrotation
                  End Site
                  {
                    OFFSET 1.62519 -0.234802 1.16502
                  }
                }
              }
              JOINT lMid1
              {
                OFFSET 8.24714 1.18213 3.41376
                CHANNELS 3 Zrotation Xrotation Yrotation
                JOINT lMid2
                {
                  OFFSET 3.10165 -0.590103 1.0647
                  CHANNELS 3 Zrotation Xrotation Yrotation
                  End Site
                  {
                    OFFSET 2.48547 -0.328903 0.83742
                  }
                }
              }
              JOINT lRing1
              {
                OFFSET 8.82822 0.546677 1.51678
                CHANNELS 3 Zrotation Xrotation Yrotation
                JOINT lRing2
                {
                  OFFSET 2.60934 -0.819778 -0.0198488
                  CHANNELS 3 Zrotation Xrotation Yrotation
                  End Site
                  {
                    OFFSET 2.33842 -0.294052 0.168128
                  }
                }
              }
              JOINT lPinky1
              {
                OFFSET 8.27202 -0.0477905 -0.4584
                CHANNELS 3 Zrotation Xrotation Yrotation
                JOINT lPinky2
                {
                  OFFSET 1.82734 -0.647385 -0.700984
                  CHANNELS 3 Zrotation Xrotation Yrotation
                  End Site
                  {
                    OFFSET 1.69225 -0.51767 -0.607171
                  }
                }
              }
            }
          }
        }
      }
    }
  }
  JOINT rButtock
  {
    OFFSET -8.77824 4.35084 1.2192
    CHANNELS 3 Zrotation Xrotation Yrotation
    JOINT rThigh
    {
      OFFSET 0 -1.70687 -2.19456
      CHANNELS 3 Zrotation Xrotation Yrotation
      JOINT rShin
      {
        OFFSET 0 -36.8199 0.73152
        CHANNELS 3 Zrotation Xrotation Yrotation
        JOINT rFoot
        {
          OFFSET 0.73152 -45.1104 -5.12064
          CHANNELS 3 Zrotation Xrotation Yrotation
          End Site
          {
            OFFSET -1.1221 -3.69964 12.103
          }
        }
      }
    }
  }
  JOINT lButtock
  {
    OFFSET 8.77824 4.35084 1.2192
    CHANNELS 3 Zrotation Xrotation Yrotation
    JOINT lThigh
    {
      OFFSET 0 -1.70687 -2.19456
      CHANNELS 3 Zrotation Xrotation Yrotation
      JOINT lShin
      {
        OFFSET 0 -36.8199 0.73152
        CHANNELS 3 Zrotation Xrotation Yrotation
        JOINT lFoot
        {
          OFFSET -0.73152 -45.1104 -5.12064
          CHANNELS 3 Zrotation Xrotation Yrotation
          End Site
          {
            OFFSET 1.1221 -3.69964 12.103
          }
        }
      }
    }
  }
}
MOTION
Frames:	5
Frame Time:	0.03333
-0.05840000230818987 58.370500802993774 0.09549999958835542 -15.353294372558594 -30.5264949798584 2.723618507385254 13.403904914855957 17.380496978759766 14.98689079284668 -1.2839155197143555 -7.465205192565918 4.5154571533203125 -2.3785288333892822 13.99429702758789 0.7996276617050171 5.571717739105225 -23.602502822875977 2.818239688873291 -0.0 0.0 -0.0 -0.0 0.0 -0.0 -0.0 0.0 -0.0 64.26089477539062 43.0641975402832 -1.8605811595916748 -20.24648094177246 -13.324803352355957 39.28169631958008 -0.1826109141111374 12.087100982666016 1.724685549736023 -0.0 0.0 -0.0 -0.0 0.0 -0.0 -0.0 0.0 -0.0 7.73087739944458 5.47489595413208 0.41732463240623474 -0.0 0.0 -0.0 2.9054994583129883 0.9650753736495972 0.10300876200199127 -0.0 0.0 -0.0 10.278595924377441 0.7317469120025635 0.026285577565431595 -0.0 0.0 -0.0 2.221662759780884 -0.7335850596427917 -0.20831839740276337 -0.0 0.0 -0.0 -68.11039733886719 32.170501708984375 -13.86609935760498 13.080013275146484 -6.235531330108643 -23.7206974029541 0.2832850217819214 15.341862678527832 -2.2078022956848145 -0.0 0.0 -0.0 -0.0 0.0 -0.0 -0.0 0.0 -0.0 -7.73087739944458 5.47489595413208 -0.41732463240623474 -0.0 0.0 -0.0 -2.9054994583129883 0.9650753736495972 -0.10300876200199127 -0.0 0.0 -0.0 -10.278595924377441 0.7317469120025635 -0.026285577565431595 -0.0 0.0 -0.0 -2.221662759780884 -0.7335850596427917 0.20831839740276337 -0.0 0.0 -0.0 -11.981402397155762 9.436671257019043 -1.4817367792129517 -0.09329042583703995 41.18360137939453 2.2992868423461914 -10.886595726013184 -18.56919288635254 -29.87220001220703 -0.0 0.0 -0.0 66.92920684814453 -46.17490768432617 57.24530029296875 4.035758972167969 77.3298110961914 -4.014185905456543 -0.42411109805107117 -6.398797988891602 -2.783762216567993
-0.11539999977685511 58.275002241134644 0.181200000224635 -15.455391883850098 -30.413597106933594 2.858205556869507 13.495219230651855 17.263296127319336 15.003501892089844 -1.302230715751648 -7.461285591125488 4.516378879547119 -2.3670220375061035 14.037311553955078 0.7298209071159363 5.486911773681641 -23.61319923400879 2.6622538566589355 -0.0 0.0 -0.0 -0.0 0.0 -0.0 -0.0 0.0 -0.0 64.44720458984375 43.00970458984375 -2.0430593490600586 -20.224597930908203 -13.296789169311523 39.22779846191406 -0.185785174369812 12.18960189819336 1.739797592163086 -0.0 0.0 -0.0 -0.0 0.0 -0.0 -0.0 0.0 -0.0 7.73087739944458 5.47489595413208 0.41732463240623474 -0.0 0.0 -0.0 2.9054994583129883 0.9650753736495972 0.10300876200199127 -0.0 0.0 -0.0 10.278595924377441 0.7317469120025635 0.026285577565431595 -0.0 0.0 -0.0 2.221662759780884 -0.7335850596427917 -0.20831839740276337 -0.0 0.0 -0.0 -68.22029113769531 32.10460662841797 -13.797796249389648 13.061891555786133 -6.221843719482422 -23.684894561767578 0.3047846257686615 15.518589973449707 -2.236521005630493 -0.0 0.0 -0.0 -0.0 0.0 -0.0 -0.0 0.0 -0.0 -7.73087739944458 5.47489595413208 -0.41732463240623474 -0.0 0.0 -0.0 -2.9054994583129883 0.9650753736495972 -0.10300876200199127 -0.0 0.0 -0.0 -10.278595924377441 0.7317469120025635 -0.026285577565431595 -0.0 0.0 -0.0 -2.221662759780884 -0.7335850596427917 0.20831839740276337 -0.0 0.0 -0.0 -11.881293296813965 9.511395454406738 -1.521073579788208 -0.0909704938530922 41.169498443603516 2.306567668914795 -10.948512077331543 -18.574697494506836 -30.011398315429688 -0.0 0.0 -0.0 67.26220703125 -46.30539321899414 57.466304779052734 4.1431660652160645 77.5872802734375 -4.117136001586914 -0.4684159457683563 -6.40703821182251 -2.9804129600524902
-0.16639999812468886 58.18979740142822 0.2740000025369227 -15.569293975830078 -30.30840301513672 3.004509687423706 13.616907119750977 17.171798706054688 15.006399154663086 -1.3154224157333374 -7.466375827789307 4.519070148468018 -2.409626007080078 14.00468635559082 0.6889423131942749 5.501529216766357 -23.579492568969727 2.5845847129821777 -0.0 0.0 -0.0 -0.0 0.0 -0.0 -0.0 0.0 -0.0 64.54959106445312 43.01319885253906 -2.1473512649536133 -20.211610794067383 -13.280085563659668 39.19589614868164 -0.18776364624500275 12.253304481506348 1.7491132020950317 -0.0 0.0 -0.0 -0.0 0.0 -0.0 -0.0 0.0 -0.0 7.73087739944458 5.47489595413208 0.41732463240623474 -0.0 0.0 -0.0 2.9054994583129883 0.9650753736495972 0.10300876200199127 -0.0 0.0 -0.0 10.278595924377441 0.7317469120025635 0.026285577565431595 -0.0 0.0 -0.0 2.221662759780884 -0.7335850596427917 -0.20831839740276337 -0.0 0.0 -0.0 -68.31499481201172 32.057804107666016 -13.75100040435791 13.05361270904541 -6.2155656814575195 -23.66859245300293 0.3078973889350891 15.59510326385498 -2.2481372356414795 -0.0 0.0 -0.0 -0.0 0.0 -0.0 -0.0 0.0 -0.0 -7.73087739944458 5.47489595413208 -0.41732463240623474 -0.0 0.0 -0.0 -2.9054994583129883 0.9650753736495972 -0.10300876200199127 -0.0 0.0 -0.0 -10.278595924377441 0.7317469120025635 -0.026285577565431595 -0.0 0.0 -0.0 -2.221662759780884 -0.7335850596427917 0.20831839740276337 -0.0 0.0 -0.0 -11.747100830078125 9.584214210510254 -1.5745972394943237 -0.08997834473848343 41.12909698486328 2.313020706176758 -11.005678176879883 -18.620412826538086 -30.10019874572754 -0.0 0.0 -0.0 67.56959533691406 -46.4556884765625 57.62529754638672 4.239923000335693 77.81688690185547 -4.21539306640625 -0.4665723443031311 -6.498972415924072 -2.9631500244140625
-0.2191999985370785 58.11970233917236 0.3606000042054802 -15.673683166503906 -30.194202423095703 3.1330134868621826 13.747087478637695 17.099002838134766 14.992405891418457 -1.3208587169647217 -7.4726080894470215 4.519003391265869 -2.4585912227630615 13.959893226623535 0.6634532809257507 5.529426097869873 -23.567792892456055 2.544325113296509 -0.0 0.0 -0.0 -0.0 0.0 -0.0 -0.0 0.0 -0.0 64.5906982421875 43.05359649658203 -2.200599431991577 -20.205799102783203 -13.272801399230957 39.18179702758789 -0.17445269227027893 12.283108711242676 1.7518949508666992 -0.0 0.0 -0.0 -0.0 0.0 -0.0 -0.0 0.0 -0.0 7.73087739944458 5.47489595413208 0.41732463240623474 -0.0 0.0 -0.0 2.9054994583129883 0.9650753736495972 0.10300876200199127 -0.0 0.0 -0.0 10.278595924377441 0.7317469120025635 0.026285577565431595 -0.0 0.0 -0.0 2.221662759780884 -0.7335850596427917 -0.20831839740276337 -0.0 0.0 -0.0 -68.41410064697266 32.021793365478516 -13.69449520111084 13.059014320373535 -6.21952486038208 -23.67920684814453 0.30770963430404663 15.590693473815918 -2.2474098205566406 -0.0 0.0 -0.0 -0.0 0.0 -0.0 -0.0 0.0 -0.0 -7.73087739944458 5.47489595413208 -0.41732463240623474 -0.0 0.0 -0.0 -2.9054994583129883 0.9650753736495972 -0.10300876200199127 -0.0 0.0 -0.0 -10.278595924377441 0.7317469120025635 -0.026285577565431595 -0.0 0.0 -0.0 -2.221662759780884 -0.7335850596427917 0.20831839740276337 -0.0 0.0 -0.0 -11.615777969360352 9.651607513427734 -1.6415226459503174 -0.08837936818599701 41.08869934082031 2.319369316101074 -11.056387901306152 -18.675811767578125 -30.164196014404297 -0.0 0.0 -0.0 67.86668395996094 -46.62309265136719 57.75018310546875 4.337564945220947 78.04193878173828 -4.316155433654785 -0.45689940452575684 -6.584993839263916 -2.907094955444336
-0.26969999889843166 58.03920030593872 0.43670000159181654 -15.773801803588867 -30.09579849243164 3.2450997829437256 13.862286567687988 17.06109046936035 14.94640827178955 -1.3150891065597534 -7.475273609161377 4.509475231170654 -2.4761524200439453 13.94540786743164 0.6586421728134155 5.505683422088623 -23.637802124023438 2.5352847576141357 -0.0 0.0 -0.0 -0.0 0.0 -0.0 -0.0 0.0 -0.0 64.5531005859375 43.13560485839844 -2.1830554008483887 -20.20200538635254 -13.26800537109375 39.17269515991211 -0.17380990087985992 12.262320518493652 1.7489023208618164 -0.0 0.0 -0.0 -0.0 0.0 -0.0 -0.0 0.0 -0.0 7.73087739944458 5.47489595413208 0.41732463240623474 -0.0 0.0 -0.0 2.9054994583129883 0.9650753736495972 0.10300876200199127 -0.0 0.0 -0.0 10.278595924377441 0.7317469120025635 0.026285577565431595 -0.0 0.0 -0.0 2.221662759780884 -0.7335850596427917 -0.20831839740276337 -0.0 0.0 -0.0 -68.5409927368164 31.99700355529785 -13.588603973388672 13.091084480285645 -6.243897438049316 -23.74260711669922 0.2775130271911621 15.460558891296387 -2.2242746353149414 -0.0 0.0 -0.0 -0.0 0.0 -0.0 -0.0 0.0 -0.0 -7.73087739944458 5.47489595413208 -0.41732463240623474 -0.0 0.0 -0.0 -2.9054994583129883 0.9650753736495972 -0.10300876200199127 -0.0 0.0 -0.0 -10.278595924377441 0.7317469120025635 -0.026285577565431595 -0.0 0.0 -0.0 -2.221662759780884 -0.7335850596427917 0.20831839740276337 -0.0 0.0 -0.0 -11.533703804016113 9.715047836303711 -1.723383903503418 -0.08730330318212509 41.06989288330078 2.327043294906616 -11.090213775634766 -18.712596893310547 -30.20989418029785 -0.0 0.0 -0.0 68.1365966796875 -46.80550003051758 57.832191467285156 4.4443254470825195 78.27838134765625 -4.424431800842285 -0.47307920455932617 -6.590881824493408 -2.9606895446777344
